<svg xmlns="http://www.w3.org/2000/svg" viewBox="0 0 64 64" fill="none">
    <defs>
        <linearGradient id="g" x1="0%" y1="0%" x2="100%" y2="100%">
            <stop offset="0%" stop-color="#0C5A86" />
            <stop offset="100%" stop-color="#1DAFD9" />
        </linearGradient>
    </defs>
    <circle cx="32" cy="30" r="22" stroke="url(#g)" stroke-width="2" fill="none" opacity="0.6" />
    <ellipse cx="32" cy="46" rx="12" ry="3" stroke="url(#g)" stroke-width="1.5" fill="none" />
    <ellipse cx="32" cy="46" rx="6.5" ry="1.8" stroke="url(#g)" stroke-width="1" fill="none" />
    <line x1="32" y1="46" x2="32" y2="30" stroke="url(#g)" stroke-width="2.5" stroke-linecap="round" />
    <path d="M32 30 C28 25 23 22 22 16" stroke="url(#g)" stroke-width="1.8" stroke-linecap="round" fill="none" />
    <path d="M32 30 C36 25 41 22 42 16" stroke="url(#g)" stroke-width="1.8" stroke-linecap="round" fill="none" />
    <path d="M32 30 C30 24 29 20 32 16" stroke="url(#g)" stroke-width="2.2" stroke-linecap="round" fill="none" />
    <path
        d="M32 13 C30.8 15.5 30 17 30 18.2 C30 19.3 30.9 20.2 32 20.2 C33.1 20.2 34 19.3 34 18.2 C34 17 33.2 15.5 32 13Z"
        fill="url(#g)" />
</svg>